<mxfile host="app.diagrams.net" agent="Mozilla/5.0 (Macintosh; Intel Mac OS X 10_15_7) AppleWebKit/537.36 (KHTML, like Gecko) Chrome/141.0.0.0 Safari/537.36" version="28.2.8">
  <diagram name="Page-1" id="gvl01kOopIaqoInNrp4j">
    <mxGraphModel dx="1273" dy="-274" grid="1" gridSize="10" guides="1" tooltips="1" connect="1" arrows="1" fold="1" page="1" pageScale="1" pageWidth="850" pageHeight="1100" math="0" shadow="0">
      <root>
        <mxCell id="0" />
        <mxCell id="1" parent="0" />
        <mxCell id="9oXxncAZsHDewSrDr5Lh-1" value="" style="rounded=0;whiteSpace=wrap;html=1;labelBackgroundColor=none;" parent="1" vertex="1">
          <mxGeometry x="640" y="1170" width="170" height="170" as="geometry" />
        </mxCell>
        <mxCell id="9oXxncAZsHDewSrDr5Lh-3" value="" style="rounded=0;whiteSpace=wrap;html=1;" parent="1" vertex="1">
          <mxGeometry x="860" y="1230" width="85" height="80" as="geometry" />
        </mxCell>
        <mxCell id="9oXxncAZsHDewSrDr5Lh-4" value="Visitor" style="shape=umlActor;verticalLabelPosition=bottom;verticalAlign=top;html=1;outlineConnect=0;" parent="1" vertex="1">
          <mxGeometry x="570" y="1240" width="30" height="60" as="geometry" />
        </mxCell>
        <mxCell id="9oXxncAZsHDewSrDr5Lh-5" value="" style="endArrow=none;html=1;rounded=0;entryX=0;entryY=0.5;entryDx=0;entryDy=0;" parent="1" target="9oXxncAZsHDewSrDr5Lh-7" edge="1">
          <mxGeometry width="50" height="50" relative="1" as="geometry">
            <mxPoint x="610" y="1240" as="sourcePoint" />
            <mxPoint x="680" y="1244.8" as="targetPoint" />
          </mxGeometry>
        </mxCell>
        <mxCell id="9oXxncAZsHDewSrDr5Lh-6" value="" style="endArrow=none;html=1;rounded=0;entryX=0;entryY=0.5;entryDx=0;entryDy=0;" parent="1" target="9oXxncAZsHDewSrDr5Lh-8" edge="1">
          <mxGeometry width="50" height="50" relative="1" as="geometry">
            <mxPoint x="610" y="1300" as="sourcePoint" />
            <mxPoint x="690" y="1300" as="targetPoint" />
          </mxGeometry>
        </mxCell>
        <mxCell id="9oXxncAZsHDewSrDr5Lh-7" value="" style="ellipse;whiteSpace=wrap;html=1;" parent="1" vertex="1">
          <mxGeometry x="680" y="1220" width="90" height="40" as="geometry" />
        </mxCell>
        <mxCell id="9oXxncAZsHDewSrDr5Lh-8" value="" style="ellipse;whiteSpace=wrap;html=1;" parent="1" vertex="1">
          <mxGeometry x="680" y="1280" width="90" height="40" as="geometry" />
        </mxCell>
        <mxCell id="9oXxncAZsHDewSrDr5Lh-9" value="&lt;font&gt;search by query&lt;/font&gt;" style="text;html=1;align=center;verticalAlign=middle;whiteSpace=wrap;rounded=0;fontSize=13;" parent="1" vertex="1">
          <mxGeometry x="680" y="1280" width="90" height="40" as="geometry" />
        </mxCell>
        <mxCell id="9oXxncAZsHDewSrDr5Lh-10" value="&lt;font&gt;browse contents&lt;/font&gt;" style="text;html=1;align=center;verticalAlign=middle;whiteSpace=wrap;rounded=0;fontSize=13;" parent="1" vertex="1">
          <mxGeometry x="680" y="1220" width="90" height="40" as="geometry" />
        </mxCell>
        <mxCell id="9oXxncAZsHDewSrDr5Lh-11" value="&lt;div&gt;&lt;span style=&quot;background-color: transparent; color: light-dark(rgb(0, 0, 0), rgb(255, 255, 255));&quot;&gt;Database&lt;/span&gt;&lt;/div&gt;" style="text;html=1;align=center;verticalAlign=middle;whiteSpace=wrap;rounded=0;" parent="1" vertex="1">
          <mxGeometry x="870" y="1245" width="62.5" height="35" as="geometry" />
        </mxCell>
        <mxCell id="9oXxncAZsHDewSrDr5Lh-12" value="" style="endArrow=none;html=1;rounded=0;entryX=1;entryY=0.5;entryDx=0;entryDy=0;exitX=0;exitY=0.75;exitDx=0;exitDy=0;" parent="1" source="9oXxncAZsHDewSrDr5Lh-3" target="9oXxncAZsHDewSrDr5Lh-9" edge="1">
          <mxGeometry width="50" height="50" relative="1" as="geometry">
            <mxPoint x="710" y="1330" as="sourcePoint" />
            <mxPoint x="760" y="1280" as="targetPoint" />
          </mxGeometry>
        </mxCell>
        <mxCell id="9oXxncAZsHDewSrDr5Lh-13" value="" style="endArrow=none;html=1;rounded=0;entryX=1;entryY=0.5;entryDx=0;entryDy=0;exitX=0;exitY=0.25;exitDx=0;exitDy=0;" parent="1" source="9oXxncAZsHDewSrDr5Lh-3" target="9oXxncAZsHDewSrDr5Lh-10" edge="1">
          <mxGeometry width="50" height="50" relative="1" as="geometry">
            <mxPoint x="710" y="1330" as="sourcePoint" />
            <mxPoint x="760" y="1280" as="targetPoint" />
          </mxGeometry>
        </mxCell>
        <mxCell id="9oXxncAZsHDewSrDr5Lh-49" value="Page Viewing System" style="text;html=1;whiteSpace=wrap;strokeColor=none;fillColor=none;align=center;verticalAlign=middle;rounded=0;" parent="1" vertex="1">
          <mxGeometry x="640" y="1180" width="170" height="30" as="geometry" />
        </mxCell>
        <mxCell id="9oXxncAZsHDewSrDr5Lh-64" value="" style="rounded=0;whiteSpace=wrap;html=1;labelBackgroundColor=none;" parent="1" vertex="1">
          <mxGeometry x="200" y="1150" width="170" height="360" as="geometry" />
        </mxCell>
        <mxCell id="9oXxncAZsHDewSrDr5Lh-65" value="" style="rounded=0;whiteSpace=wrap;html=1;" parent="1" vertex="1">
          <mxGeometry x="418.75" y="1340" width="85" height="60" as="geometry" />
        </mxCell>
        <mxCell id="9oXxncAZsHDewSrDr5Lh-73" value="&lt;div&gt;&lt;span style=&quot;background-color: transparent; color: light-dark(rgb(0, 0, 0), rgb(255, 255, 255));&quot;&gt;Database&lt;/span&gt;&lt;/div&gt;" style="text;html=1;align=center;verticalAlign=middle;whiteSpace=wrap;rounded=0;" parent="1" vertex="1">
          <mxGeometry x="430" y="1352.5" width="62.5" height="35" as="geometry" />
        </mxCell>
        <mxCell id="9oXxncAZsHDewSrDr5Lh-74" value="" style="endArrow=none;html=1;rounded=0;entryX=0.98;entryY=0.643;entryDx=0;entryDy=0;entryPerimeter=0;" parent="1" target="9oXxncAZsHDewSrDr5Lh-79" edge="1">
          <mxGeometry width="50" height="50" relative="1" as="geometry">
            <mxPoint x="430" y="1260" as="sourcePoint" />
            <mxPoint x="330" y="1350" as="targetPoint" />
          </mxGeometry>
        </mxCell>
        <mxCell id="9oXxncAZsHDewSrDr5Lh-75" value="" style="endArrow=none;html=1;rounded=0;entryX=1;entryY=0.5;entryDx=0;entryDy=0;" parent="1" target="9oXxncAZsHDewSrDr5Lh-88" edge="1">
          <mxGeometry width="50" height="50" relative="1" as="geometry">
            <mxPoint x="430" y="1270" as="sourcePoint" />
            <mxPoint x="330" y="1290" as="targetPoint" />
          </mxGeometry>
        </mxCell>
        <mxCell id="9oXxncAZsHDewSrDr5Lh-76" value="Contributing&amp;nbsp;&lt;span style=&quot;background-color: transparent; color: light-dark(rgb(0, 0, 0), rgb(255, 255, 255));&quot;&gt;System&lt;/span&gt;" style="text;html=1;whiteSpace=wrap;strokeColor=none;fillColor=none;align=center;verticalAlign=middle;rounded=0;" parent="1" vertex="1">
          <mxGeometry x="200" y="1160" width="170" height="30" as="geometry" />
        </mxCell>
        <mxCell id="9oXxncAZsHDewSrDr5Lh-78" value="Contribu&lt;span style=&quot;background-color: transparent; color: light-dark(rgb(0, 0, 0), rgb(255, 255, 255));&quot;&gt;tor&lt;/span&gt;" style="shape=umlActor;verticalLabelPosition=bottom;verticalAlign=top;html=1;outlineConnect=0;" parent="1" vertex="1">
          <mxGeometry x="130" y="1310" width="30" height="60" as="geometry" />
        </mxCell>
        <mxCell id="9oXxncAZsHDewSrDr5Lh-79" value="" style="ellipse;whiteSpace=wrap;html=1;" parent="1" vertex="1">
          <mxGeometry x="227.5" y="1195" width="112.5" height="45" as="geometry" />
        </mxCell>
        <mxCell id="9oXxncAZsHDewSrDr5Lh-80" value="view moderation rules" style="text;html=1;align=center;verticalAlign=middle;whiteSpace=wrap;rounded=0;fontSize=13;" parent="1" vertex="1">
          <mxGeometry x="233.75" y="1205" width="100" height="30" as="geometry" />
        </mxCell>
        <mxCell id="9oXxncAZsHDewSrDr5Lh-81" value="" style="ellipse;whiteSpace=wrap;html=1;" parent="1" vertex="1">
          <mxGeometry x="218.75" y="1450" width="130" height="40" as="geometry" />
        </mxCell>
        <mxCell id="9oXxncAZsHDewSrDr5Lh-82" value="&lt;font&gt;discuss with other contributors&lt;/font&gt;" style="text;html=1;align=center;verticalAlign=middle;whiteSpace=wrap;rounded=0;fontSize=13;" parent="1" vertex="1">
          <mxGeometry x="228.75" y="1455" width="110" height="30" as="geometry" />
        </mxCell>
        <mxCell id="9oXxncAZsHDewSrDr5Lh-83" value="" style="ellipse;whiteSpace=wrap;html=1;" parent="1" vertex="1">
          <mxGeometry x="238.75" y="1380" width="90" height="40" as="geometry" />
        </mxCell>
        <mxCell id="9oXxncAZsHDewSrDr5Lh-84" value="&lt;br&gt;&lt;div&gt;e&lt;span style=&quot;background-color: transparent; color: light-dark(rgb(0, 0, 0), rgb(255, 255, 255));&quot;&gt;dit content&lt;/span&gt;&lt;/div&gt;&lt;div&gt;&lt;br&gt;&lt;/div&gt;" style="text;html=1;align=center;verticalAlign=middle;whiteSpace=wrap;rounded=0;fontSize=13;" parent="1" vertex="1">
          <mxGeometry x="238.75" y="1385" width="85" height="30" as="geometry" />
        </mxCell>
        <mxCell id="9oXxncAZsHDewSrDr5Lh-85" value="" style="ellipse;whiteSpace=wrap;html=1;" parent="1" vertex="1">
          <mxGeometry x="238.75" y="1320" width="90" height="40" as="geometry" />
        </mxCell>
        <mxCell id="9oXxncAZsHDewSrDr5Lh-86" value="publish new content" style="text;html=1;align=center;verticalAlign=middle;whiteSpace=wrap;rounded=0;fontSize=13;" parent="1" vertex="1">
          <mxGeometry x="238.75" y="1325" width="90" height="30" as="geometry" />
        </mxCell>
        <mxCell id="9oXxncAZsHDewSrDr5Lh-87" value="" style="ellipse;whiteSpace=wrap;html=1;" parent="1" vertex="1">
          <mxGeometry x="238.75" y="1250" width="90" height="40" as="geometry" />
        </mxCell>
        <mxCell id="9oXxncAZsHDewSrDr5Lh-88" value="&lt;font&gt;i&lt;/font&gt;&lt;span style=&quot;background-color: transparent; color: light-dark(rgb(0, 0, 0), rgb(255, 255, 255));&quot;&gt;nitiate dispute&lt;/span&gt;" style="text;html=1;align=center;verticalAlign=middle;whiteSpace=wrap;rounded=0;fontSize=13;" parent="1" vertex="1">
          <mxGeometry x="238.75" y="1255" width="90" height="30" as="geometry" />
        </mxCell>
        <mxCell id="9oXxncAZsHDewSrDr5Lh-89" value="" style="endArrow=none;html=1;rounded=0;entryX=0;entryY=0.5;entryDx=0;entryDy=0;endFill=0;" parent="1" target="9oXxncAZsHDewSrDr5Lh-79" edge="1">
          <mxGeometry width="50" height="50" relative="1" as="geometry">
            <mxPoint x="170" y="1320" as="sourcePoint" />
            <mxPoint x="300" y="1400" as="targetPoint" />
          </mxGeometry>
        </mxCell>
        <mxCell id="9oXxncAZsHDewSrDr5Lh-90" value="" style="endArrow=none;html=1;rounded=0;entryX=-0.006;entryY=0.599;entryDx=0;entryDy=0;entryPerimeter=0;endFill=0;" parent="1" target="9oXxncAZsHDewSrDr5Lh-84" edge="1">
          <mxGeometry width="50" height="50" relative="1" as="geometry">
            <mxPoint x="170" y="1350" as="sourcePoint" />
            <mxPoint x="270" y="1320" as="targetPoint" />
          </mxGeometry>
        </mxCell>
        <mxCell id="9oXxncAZsHDewSrDr5Lh-91" value="" style="endArrow=none;html=1;rounded=0;entryX=0;entryY=0.5;entryDx=0;entryDy=0;endFill=0;" parent="1" target="9oXxncAZsHDewSrDr5Lh-86" edge="1">
          <mxGeometry width="50" height="50" relative="1" as="geometry">
            <mxPoint x="170" y="1340" as="sourcePoint" />
            <mxPoint x="260" y="1280" as="targetPoint" />
          </mxGeometry>
        </mxCell>
        <mxCell id="9oXxncAZsHDewSrDr5Lh-92" value="" style="endArrow=none;html=1;rounded=0;entryX=0;entryY=0.5;entryDx=0;entryDy=0;endFill=0;" parent="1" target="9oXxncAZsHDewSrDr5Lh-88" edge="1">
          <mxGeometry width="50" height="50" relative="1" as="geometry">
            <mxPoint x="170" y="1330" as="sourcePoint" />
            <mxPoint x="290" y="1320" as="targetPoint" />
            <Array as="points" />
          </mxGeometry>
        </mxCell>
        <mxCell id="9oXxncAZsHDewSrDr5Lh-93" value="" style="endArrow=none;html=1;rounded=0;entryX=0;entryY=0.5;entryDx=0;entryDy=0;endFill=0;" parent="1" target="9oXxncAZsHDewSrDr5Lh-81" edge="1">
          <mxGeometry width="50" height="50" relative="1" as="geometry">
            <mxPoint x="170" y="1360" as="sourcePoint" />
            <mxPoint x="290" y="1300" as="targetPoint" />
          </mxGeometry>
        </mxCell>
        <mxCell id="9oXxncAZsHDewSrDr5Lh-95" value="" style="endArrow=none;html=1;rounded=0;entryX=0;entryY=0.75;entryDx=0;entryDy=0;exitX=1;exitY=0.5;exitDx=0;exitDy=0;" parent="1" source="9oXxncAZsHDewSrDr5Lh-81" target="9oXxncAZsHDewSrDr5Lh-65" edge="1">
          <mxGeometry width="50" height="50" relative="1" as="geometry">
            <mxPoint x="300" y="1350" as="sourcePoint" />
            <mxPoint x="350" y="1300" as="targetPoint" />
          </mxGeometry>
        </mxCell>
        <mxCell id="9oXxncAZsHDewSrDr5Lh-96" value="" style="endArrow=none;html=1;rounded=0;entryX=-0.003;entryY=0.63;entryDx=0;entryDy=0;exitX=1;exitY=0.5;exitDx=0;exitDy=0;entryPerimeter=0;" parent="1" source="9oXxncAZsHDewSrDr5Lh-83" target="9oXxncAZsHDewSrDr5Lh-65" edge="1">
          <mxGeometry width="50" height="50" relative="1" as="geometry">
            <mxPoint x="300" y="1350" as="sourcePoint" />
            <mxPoint x="350" y="1300" as="targetPoint" />
          </mxGeometry>
        </mxCell>
        <mxCell id="9oXxncAZsHDewSrDr5Lh-97" value="" style="endArrow=none;html=1;rounded=0;entryX=0;entryY=0.5;entryDx=0;entryDy=0;exitX=1;exitY=0.5;exitDx=0;exitDy=0;" parent="1" source="9oXxncAZsHDewSrDr5Lh-86" target="9oXxncAZsHDewSrDr5Lh-65" edge="1">
          <mxGeometry width="50" height="50" relative="1" as="geometry">
            <mxPoint x="300" y="1350" as="sourcePoint" />
            <mxPoint x="350" y="1300" as="targetPoint" />
          </mxGeometry>
        </mxCell>
        <mxCell id="9oXxncAZsHDewSrDr5Lh-98" value="Modera&lt;span style=&quot;background-color: transparent; color: light-dark(rgb(0, 0, 0), rgb(255, 255, 255));&quot;&gt;tor&lt;/span&gt;" style="shape=umlActor;verticalLabelPosition=bottom;verticalAlign=top;html=1;outlineConnect=0;" parent="1" vertex="1">
          <mxGeometry x="440" y="1235" width="30" height="60" as="geometry" />
        </mxCell>
        <mxCell id="9oXxncAZsHDewSrDr5Lh-99" value="Contribu&lt;span style=&quot;background-color: transparent; color: light-dark(rgb(0, 0, 0), rgb(255, 255, 255));&quot;&gt;tor&lt;/span&gt;" style="shape=umlActor;verticalLabelPosition=bottom;verticalAlign=top;html=1;outlineConnect=0;" parent="1" vertex="1">
          <mxGeometry x="440" y="1420" width="30" height="60" as="geometry" />
        </mxCell>
        <mxCell id="9oXxncAZsHDewSrDr5Lh-100" value="" style="endArrow=none;html=1;rounded=0;exitX=0.995;exitY=0.596;exitDx=0;exitDy=0;exitPerimeter=0;" parent="1" source="9oXxncAZsHDewSrDr5Lh-81" edge="1">
          <mxGeometry width="50" height="50" relative="1" as="geometry">
            <mxPoint x="410" y="1480" as="sourcePoint" />
            <mxPoint x="440" y="1460" as="targetPoint" />
          </mxGeometry>
        </mxCell>
        <mxCell id="9oXxncAZsHDewSrDr5Lh-101" value="Admin" style="shape=umlActor;verticalLabelPosition=bottom;verticalAlign=top;html=1;outlineConnect=0;" parent="1" vertex="1">
          <mxGeometry x="60" y="1690" width="30" height="60" as="geometry" />
        </mxCell>
        <mxCell id="9oXxncAZsHDewSrDr5Lh-102" value="" style="rounded=0;whiteSpace=wrap;html=1;" parent="1" vertex="1">
          <mxGeometry x="168.75" y="1560" width="151.25" height="310" as="geometry" />
        </mxCell>
        <mxCell id="9oXxncAZsHDewSrDr5Lh-103" value="Administration&amp;nbsp;&lt;span style=&quot;background-color: transparent; color: light-dark(rgb(0, 0, 0), rgb(255, 255, 255));&quot;&gt;system&lt;/span&gt;" style="text;html=1;whiteSpace=wrap;strokeColor=none;fillColor=none;align=center;verticalAlign=middle;rounded=0;" parent="1" vertex="1">
          <mxGeometry x="171.88" y="1570" width="145" height="30" as="geometry" />
        </mxCell>
        <mxCell id="9oXxncAZsHDewSrDr5Lh-104" value="" style="ellipse;whiteSpace=wrap;html=1;" parent="1" vertex="1">
          <mxGeometry x="195.63" y="1610" width="90" height="40" as="geometry" />
        </mxCell>
        <mxCell id="9oXxncAZsHDewSrDr5Lh-105" value="block IPs" style="text;html=1;align=center;verticalAlign=middle;whiteSpace=wrap;rounded=0;fontSize=13;" parent="1" vertex="1">
          <mxGeometry x="195.63" y="1615" width="90" height="30" as="geometry" />
        </mxCell>
        <mxCell id="9oXxncAZsHDewSrDr5Lh-106" value="" style="ellipse;whiteSpace=wrap;html=1;" parent="1" vertex="1">
          <mxGeometry x="185.01" y="1770" width="112.5" height="50" as="geometry" />
        </mxCell>
        <mxCell id="9oXxncAZsHDewSrDr5Lh-107" value="manage account access" style="text;html=1;align=center;verticalAlign=middle;whiteSpace=wrap;rounded=0;fontSize=13;" parent="1" vertex="1">
          <mxGeometry x="188.14" y="1780" width="105" height="30" as="geometry" />
        </mxCell>
        <mxCell id="9oXxncAZsHDewSrDr5Lh-108" value="" style="ellipse;whiteSpace=wrap;html=1;" parent="1" vertex="1">
          <mxGeometry x="188.76" y="1665" width="105" height="55" as="geometry" />
        </mxCell>
        <mxCell id="9oXxncAZsHDewSrDr5Lh-109" value="manage GDPR compliance" style="text;html=1;align=center;verticalAlign=middle;whiteSpace=wrap;rounded=0;fontSize=13;" parent="1" vertex="1">
          <mxGeometry x="188.13" y="1677.5" width="106.25" height="30" as="geometry" />
        </mxCell>
        <mxCell id="9oXxncAZsHDewSrDr5Lh-110" value="" style="endArrow=none;html=1;rounded=0;entryX=0;entryY=0.5;entryDx=0;entryDy=0;endFill=0;" parent="1" target="9oXxncAZsHDewSrDr5Lh-105" edge="1">
          <mxGeometry width="50" height="50" relative="1" as="geometry">
            <mxPoint x="100" y="1700" as="sourcePoint" />
            <mxPoint x="240" y="1720" as="targetPoint" />
          </mxGeometry>
        </mxCell>
        <mxCell id="9oXxncAZsHDewSrDr5Lh-111" value="" style="endArrow=none;html=1;rounded=0;entryX=0;entryY=0.5;entryDx=0;entryDy=0;endFill=0;" parent="1" target="9oXxncAZsHDewSrDr5Lh-106" edge="1">
          <mxGeometry width="50" height="50" relative="1" as="geometry">
            <mxPoint x="100" y="1730" as="sourcePoint" />
            <mxPoint x="240" y="1720" as="targetPoint" />
          </mxGeometry>
        </mxCell>
        <mxCell id="9oXxncAZsHDewSrDr5Lh-112" value="" style="endArrow=none;html=1;rounded=0;entryX=0;entryY=0.5;entryDx=0;entryDy=0;endFill=0;" parent="1" target="9oXxncAZsHDewSrDr5Lh-108" edge="1">
          <mxGeometry width="50" height="50" relative="1" as="geometry">
            <mxPoint x="100" y="1720" as="sourcePoint" />
            <mxPoint x="240" y="1720" as="targetPoint" />
          </mxGeometry>
        </mxCell>
        <mxCell id="9oXxncAZsHDewSrDr5Lh-113" value="" style="rounded=0;whiteSpace=wrap;html=1;" parent="1" vertex="1">
          <mxGeometry x="625" y="1575" width="241.25" height="180" as="geometry" />
        </mxCell>
        <mxCell id="9oXxncAZsHDewSrDr5Lh-114" value="Modera&lt;span style=&quot;background-color: transparent; color: light-dark(rgb(0, 0, 0), rgb(255, 255, 255));&quot;&gt;tor&lt;/span&gt;" style="shape=umlActor;verticalLabelPosition=bottom;verticalAlign=top;html=1;outlineConnect=0;" parent="1" vertex="1">
          <mxGeometry x="560" y="1635" width="30" height="60" as="geometry" />
        </mxCell>
        <mxCell id="9oXxncAZsHDewSrDr5Lh-115" value="" style="ellipse;whiteSpace=wrap;html=1;" parent="1" vertex="1">
          <mxGeometry x="766.25" y="1615" width="90" height="40" as="geometry" />
        </mxCell>
        <mxCell id="9oXxncAZsHDewSrDr5Lh-116" value="access&amp;nbsp;&lt;div&gt;audit logs&lt;/div&gt;" style="text;html=1;align=center;verticalAlign=middle;whiteSpace=wrap;rounded=0;fontSize=13;" parent="1" vertex="1">
          <mxGeometry x="766.25" y="1620" width="90" height="30" as="geometry" />
        </mxCell>
        <mxCell id="9oXxncAZsHDewSrDr5Lh-117" value="" style="ellipse;whiteSpace=wrap;html=1;" parent="1" vertex="1">
          <mxGeometry x="766.25" y="1675" width="90" height="50" as="geometry" />
        </mxCell>
        <mxCell id="9oXxncAZsHDewSrDr5Lh-118" value="remove inappropriate content" style="text;html=1;align=center;verticalAlign=middle;whiteSpace=wrap;rounded=0;fontSize=13;" parent="1" vertex="1">
          <mxGeometry x="776.25" y="1685" width="70" height="30" as="geometry" />
        </mxCell>
        <mxCell id="9oXxncAZsHDewSrDr5Lh-119" value="" style="ellipse;whiteSpace=wrap;html=1;" parent="1" vertex="1">
          <mxGeometry x="636.25" y="1645" width="70" height="40" as="geometry" />
        </mxCell>
        <mxCell id="9oXxncAZsHDewSrDr5Lh-120" value="moderate content" style="text;html=1;align=center;verticalAlign=middle;whiteSpace=wrap;rounded=0;fontSize=13;" parent="1" vertex="1">
          <mxGeometry x="640" y="1650" width="66.25" height="30" as="geometry" />
        </mxCell>
        <mxCell id="9oXxncAZsHDewSrDr5Lh-121" value="" style="endArrow=classic;html=1;rounded=0;entryX=0;entryY=0.75;entryDx=0;entryDy=0;exitX=1;exitY=0.5;exitDx=0;exitDy=0;" parent="1" source="9oXxncAZsHDewSrDr5Lh-120" target="9oXxncAZsHDewSrDr5Lh-116" edge="1">
          <mxGeometry width="50" height="50" relative="1" as="geometry">
            <mxPoint x="646.25" y="1715" as="sourcePoint" />
            <mxPoint x="696.25" y="1665" as="targetPoint" />
          </mxGeometry>
        </mxCell>
        <mxCell id="9oXxncAZsHDewSrDr5Lh-122" value="&lt;span style=&quot;font-size: 8px; text-wrap-mode: wrap;&quot;&gt;«include»&lt;/span&gt;" style="edgeLabel;html=1;align=center;verticalAlign=middle;resizable=0;points=[];labelBackgroundColor=default;labelBorderColor=none;" parent="9oXxncAZsHDewSrDr5Lh-121" connectable="0" vertex="1">
          <mxGeometry x="-0.1082" relative="1" as="geometry">
            <mxPoint as="offset" />
          </mxGeometry>
        </mxCell>
        <mxCell id="9oXxncAZsHDewSrDr5Lh-123" value="" style="endArrow=classic;html=1;rounded=0;exitX=1;exitY=0.75;exitDx=0;exitDy=0;entryX=0;entryY=0.5;entryDx=0;entryDy=0;" parent="1" source="9oXxncAZsHDewSrDr5Lh-120" target="9oXxncAZsHDewSrDr5Lh-117" edge="1">
          <mxGeometry width="50" height="50" relative="1" as="geometry">
            <mxPoint x="646.25" y="1715" as="sourcePoint" />
            <mxPoint x="696.25" y="1665" as="targetPoint" />
          </mxGeometry>
        </mxCell>
        <mxCell id="9oXxncAZsHDewSrDr5Lh-124" value="&lt;span style=&quot;font-size: 8px; text-wrap-mode: wrap;&quot;&gt;«include»&lt;/span&gt;" style="edgeLabel;html=1;align=center;verticalAlign=middle;resizable=0;points=[];labelBackgroundColor=default;" parent="9oXxncAZsHDewSrDr5Lh-123" connectable="0" vertex="1">
          <mxGeometry x="-0.3075" relative="1" as="geometry">
            <mxPoint as="offset" />
          </mxGeometry>
        </mxCell>
        <mxCell id="9oXxncAZsHDewSrDr5Lh-125" value="Moderation system" style="text;html=1;whiteSpace=wrap;strokeColor=none;fillColor=none;align=center;verticalAlign=middle;rounded=0;" parent="1" vertex="1">
          <mxGeometry x="668.75" y="1575" width="145" height="30" as="geometry" />
        </mxCell>
        <mxCell id="9oXxncAZsHDewSrDr5Lh-126" value="" style="endArrow=none;html=1;rounded=0;entryX=0;entryY=0.5;entryDx=0;entryDy=0;endFill=0;" parent="1" target="9oXxncAZsHDewSrDr5Lh-120" edge="1">
          <mxGeometry width="50" height="50" relative="1" as="geometry">
            <mxPoint x="590" y="1665" as="sourcePoint" />
            <mxPoint x="686.25" y="1615" as="targetPoint" />
          </mxGeometry>
        </mxCell>
        <mxCell id="9oXxncAZsHDewSrDr5Lh-127" value="Visitor" style="shape=umlActor;verticalLabelPosition=bottom;verticalAlign=top;html=1;outlineConnect=0;" parent="1" vertex="1">
          <mxGeometry x="440" y="1150" width="30" height="60" as="geometry" />
        </mxCell>
        <mxCell id="9oXxncAZsHDewSrDr5Lh-128" value="" style="endArrow=none;html=1;rounded=0;" parent="1" edge="1">
          <mxGeometry width="50" height="50" relative="1" as="geometry">
            <mxPoint x="340" y="1210" as="sourcePoint" />
            <mxPoint x="430" y="1190" as="targetPoint" />
          </mxGeometry>
        </mxCell>
        <mxCell id="9oXxncAZsHDewSrDr5Lh-130" value="Contribu&lt;span style=&quot;background-color: transparent; color: light-dark(rgb(0, 0, 0), rgb(255, 255, 255));&quot;&gt;tor&lt;/span&gt;" style="shape=umlActor;verticalLabelPosition=bottom;verticalAlign=top;html=1;outlineConnect=0;" parent="1" vertex="1">
          <mxGeometry x="937.5" y="1570" width="30" height="60" as="geometry" />
        </mxCell>
        <mxCell id="9oXxncAZsHDewSrDr5Lh-131" value="Visitor" style="shape=umlActor;verticalLabelPosition=bottom;verticalAlign=top;html=1;outlineConnect=0;" parent="1" vertex="1">
          <mxGeometry x="937.5" y="1660" width="30" height="60" as="geometry" />
        </mxCell>
        <mxCell id="9oXxncAZsHDewSrDr5Lh-134" value="" style="endArrow=none;html=1;rounded=0;exitX=1;exitY=0.5;exitDx=0;exitDy=0;" parent="1" source="9oXxncAZsHDewSrDr5Lh-116" edge="1">
          <mxGeometry width="50" height="50" relative="1" as="geometry">
            <mxPoint x="770" y="1695" as="sourcePoint" />
            <mxPoint x="920" y="1615" as="targetPoint" />
          </mxGeometry>
        </mxCell>
        <mxCell id="9oXxncAZsHDewSrDr5Lh-135" value="" style="endArrow=none;html=1;rounded=0;exitX=0.923;exitY=0.276;exitDx=0;exitDy=0;exitPerimeter=0;" parent="1" source="9oXxncAZsHDewSrDr5Lh-117" edge="1">
          <mxGeometry width="50" height="50" relative="1" as="geometry">
            <mxPoint x="770" y="1695" as="sourcePoint" />
            <mxPoint x="920" y="1625" as="targetPoint" />
          </mxGeometry>
        </mxCell>
        <mxCell id="9oXxncAZsHDewSrDr5Lh-136" value="" style="endArrow=none;html=1;rounded=0;exitX=1;exitY=0.5;exitDx=0;exitDy=0;" parent="1" source="9oXxncAZsHDewSrDr5Lh-117" edge="1">
          <mxGeometry width="50" height="50" relative="1" as="geometry">
            <mxPoint x="770" y="1695" as="sourcePoint" />
            <mxPoint x="920" y="1695" as="targetPoint" />
          </mxGeometry>
        </mxCell>
        <mxCell id="9oXxncAZsHDewSrDr5Lh-137" value="Contribu&lt;span style=&quot;background-color: transparent; color: light-dark(rgb(0, 0, 0), rgb(255, 255, 255));&quot;&gt;tor&lt;/span&gt;" style="shape=umlActor;verticalLabelPosition=bottom;verticalAlign=top;html=1;outlineConnect=0;" parent="1" vertex="1">
          <mxGeometry x="360" y="1652.5" width="30" height="60" as="geometry" />
        </mxCell>
        <mxCell id="9oXxncAZsHDewSrDr5Lh-138" value="Visitor" style="shape=umlActor;verticalLabelPosition=bottom;verticalAlign=top;html=1;outlineConnect=0;" parent="1" vertex="1">
          <mxGeometry x="360" y="1560" width="30" height="60" as="geometry" />
        </mxCell>
        <mxCell id="9oXxncAZsHDewSrDr5Lh-139" value="" style="endArrow=none;html=1;rounded=0;exitX=1;exitY=0.5;exitDx=0;exitDy=0;" parent="1" source="9oXxncAZsHDewSrDr5Lh-105" edge="1">
          <mxGeometry width="50" height="50" relative="1" as="geometry">
            <mxPoint x="290" y="1770" as="sourcePoint" />
            <mxPoint x="350" y="1590" as="targetPoint" />
          </mxGeometry>
        </mxCell>
        <mxCell id="9oXxncAZsHDewSrDr5Lh-140" value="" style="rounded=0;whiteSpace=wrap;html=1;" parent="1" vertex="1">
          <mxGeometry x="917.5" y="1760" width="85" height="60" as="geometry" />
        </mxCell>
        <mxCell id="9oXxncAZsHDewSrDr5Lh-141" value="&lt;div&gt;&lt;span style=&quot;background-color: transparent; color: light-dark(rgb(0, 0, 0), rgb(255, 255, 255));&quot;&gt;Database&lt;/span&gt;&lt;/div&gt;" style="text;html=1;align=center;verticalAlign=middle;whiteSpace=wrap;rounded=0;" parent="1" vertex="1">
          <mxGeometry x="928.75" y="1772.5" width="62.5" height="35" as="geometry" />
        </mxCell>
        <mxCell id="9oXxncAZsHDewSrDr5Lh-142" value="" style="endArrow=none;html=1;rounded=0;entryX=0;entryY=0.25;entryDx=0;entryDy=0;exitX=0.92;exitY=0.781;exitDx=0;exitDy=0;exitPerimeter=0;" parent="1" source="9oXxncAZsHDewSrDr5Lh-117" target="9oXxncAZsHDewSrDr5Lh-140" edge="1">
          <mxGeometry width="50" height="50" relative="1" as="geometry">
            <mxPoint x="700" y="1705" as="sourcePoint" />
            <mxPoint x="750" y="1655" as="targetPoint" />
          </mxGeometry>
        </mxCell>
        <mxCell id="9oXxncAZsHDewSrDr5Lh-144" value="Modera&lt;span style=&quot;background-color: transparent; color: light-dark(rgb(0, 0, 0), rgb(255, 255, 255));&quot;&gt;tor&lt;/span&gt;" style="shape=umlActor;verticalLabelPosition=bottom;verticalAlign=top;html=1;outlineConnect=0;" parent="1" vertex="1">
          <mxGeometry x="360" y="1760" width="30" height="60" as="geometry" />
        </mxCell>
        <mxCell id="9oXxncAZsHDewSrDr5Lh-145" value="" style="endArrow=none;html=1;rounded=0;exitX=0.969;exitY=0.048;exitDx=0;exitDy=0;exitPerimeter=0;" parent="1" source="9oXxncAZsHDewSrDr5Lh-109" edge="1">
          <mxGeometry width="50" height="50" relative="1" as="geometry">
            <mxPoint x="294" y="1708" as="sourcePoint" />
            <mxPoint x="350" y="1620" as="targetPoint" />
          </mxGeometry>
        </mxCell>
        <mxCell id="9oXxncAZsHDewSrDr5Lh-146" value="" style="endArrow=none;html=1;rounded=0;exitX=1;exitY=0.5;exitDx=0;exitDy=0;" parent="1" source="9oXxncAZsHDewSrDr5Lh-109" edge="1">
          <mxGeometry width="50" height="50" relative="1" as="geometry">
            <mxPoint x="270" y="1780" as="sourcePoint" />
            <mxPoint x="350" y="1690" as="targetPoint" />
          </mxGeometry>
        </mxCell>
        <mxCell id="9oXxncAZsHDewSrDr5Lh-147" value="" style="endArrow=none;html=1;rounded=0;exitX=1;exitY=0.5;exitDx=0;exitDy=0;" parent="1" source="9oXxncAZsHDewSrDr5Lh-106" edge="1">
          <mxGeometry width="50" height="50" relative="1" as="geometry">
            <mxPoint x="270" y="1780" as="sourcePoint" />
            <mxPoint x="350" y="1790" as="targetPoint" />
          </mxGeometry>
        </mxCell>
        <mxCell id="9oXxncAZsHDewSrDr5Lh-148" value="" style="endArrow=none;html=1;rounded=0;exitX=1;exitY=0;exitDx=0;exitDy=0;" parent="1" source="9oXxncAZsHDewSrDr5Lh-107" edge="1">
          <mxGeometry width="50" height="50" relative="1" as="geometry">
            <mxPoint x="270" y="1780" as="sourcePoint" />
            <mxPoint x="340" y="1720" as="targetPoint" />
          </mxGeometry>
        </mxCell>
        <mxCell id="9oXxncAZsHDewSrDr5Lh-150" value="" style="rounded=0;whiteSpace=wrap;html=1;" parent="1" vertex="1">
          <mxGeometry x="338.75" y="1860" width="85" height="60" as="geometry" />
        </mxCell>
        <mxCell id="9oXxncAZsHDewSrDr5Lh-151" value="&lt;div&gt;&lt;span style=&quot;background-color: transparent; color: light-dark(rgb(0, 0, 0), rgb(255, 255, 255));&quot;&gt;Database&lt;/span&gt;&lt;/div&gt;" style="text;html=1;align=center;verticalAlign=middle;whiteSpace=wrap;rounded=0;" parent="1" vertex="1">
          <mxGeometry x="350" y="1872.5" width="62.5" height="35" as="geometry" />
        </mxCell>
        <mxCell id="9oXxncAZsHDewSrDr5Lh-152" value="" style="endArrow=none;html=1;rounded=0;entryX=0;entryY=0;entryDx=0;entryDy=0;exitX=1;exitY=1;exitDx=0;exitDy=0;" parent="1" source="9oXxncAZsHDewSrDr5Lh-107" target="9oXxncAZsHDewSrDr5Lh-150" edge="1">
          <mxGeometry width="50" height="50" relative="1" as="geometry">
            <mxPoint x="290" y="1950" as="sourcePoint" />
            <mxPoint x="370" y="1850" as="targetPoint" />
          </mxGeometry>
        </mxCell>
      </root>
    </mxGraphModel>
  </diagram>
</mxfile>
